<svg version="1.0" xmlns="http://www.w3.org/2000/svg" width="682.667" height="682.667" viewBox="0 0 512 512" class="sun-icon"><path d="M249.5 1.4c-3.7 1.6-8.2 6.7-9.3 10.4-.4 1.5-.7 18.4-.7 37.7 0 39.1-.1 38.7 7.1 44.2 3.1 2.3 4.7 2.8 9.4 2.8s6.3-.5 9.4-2.8c7-5.4 7.1-5.6 7.4-40.7.2-17.3.1-33.8-.3-36.7-.7-5.6-3.4-10.4-7.7-13.6-3.4-2.5-11.3-3.2-15.3-1.3zM80.4 71.9c-5 2.3-9 7.2-9.9 12.3-1.4 7.5.2 9.7 25.4 35.2 28.6 28.9 31.8 30.8 42.1 25.3 5-2.6 9-9 9-14.1-.1-6.5-3.5-10.9-27.6-34.7C99.8 76.5 94.8 72 91.5 71.1c-5.3-1.4-6.3-1.4-11.1.8zM419.6 71.5c-5.2 1.8-49.9 46-52.7 52-2.5 5.3-2.4 9.3.4 14.5 2.6 5 9 9 14.1 9 6.5-.1 10.9-3.5 34.8-27.6C436.8 98.5 440 94.9 441 91c2.1-7.8-1.7-15.6-9.4-19.1-4.9-2.2-6.8-2.3-12-.4zM244.6 128.1c-35.8 3.1-69.2 21.4-91 49.8-34.8 45.2-35.1 108.8-.7 154.8 11.7 15.7 26.5 28.2 44 37.2 30.3 15.6 66.1 18.6 98 8.1 75.3-24.6 110.8-110.1 74.8-180.4-23.8-46.5-73.4-74.1-125.1-69.5zm23.1 33.4c31.2 2.9 61.3 25.4 75.1 56.1 5.9 13 7.5 21.2 7.6 37.9 0 18.4-1.9 26.8-9.9 43-11.3 22.8-30.3 39.5-54.1 47.6-12.1 4.1-20.8 5.2-35.4 4.6-28.3-1.3-52.1-13.2-69.6-35.1-14.4-18.1-20.8-36.5-20.8-60.1 0-16.3 2.4-26.8 9.4-41.1 12.2-25.1 33.8-43.1 60.5-50.5 8-2.2 21.6-3.8 27.5-3.3 1.9.2 6.3.6 9.7.9zM13.1 240c-4 .9-7.7 3.6-10.5 7.4-2.9 3.9-2.9 13.3 0 17.3 3.3 4.4 8 7.1 13.7 7.8 2.9.4 19.4.5 36.7.3 35.1-.3 35.3-.4 40.7-7.4 2.3-3.1 2.8-4.7 2.8-9.4s-.5-6.3-2.8-9.4c-5.5-7.1-5.2-7.1-43.2-7.3-18.7-.1-35.5.2-37.4.7zM428.5 239.9c-4.7 1.2-7.2 2.8-10.2 6.8-2.3 3-2.8 4.6-2.8 9.3 0 4.7.5 6.3 2.8 9.4 5.5 7.2 5 7.1 45.2 7.1 32.1 0 36.3-.2 39.1-1.7 12.3-6.7 12.3-22.9 0-29.6-2.7-1.5-7.1-1.7-37.1-1.9-18.7-.1-35.3.2-37 .6zM123.5 366.9c-6 2.8-50.9 48.4-52.5 53.4-1.8 5.7-.5 11.1 3.8 15.7 4.8 4.9 10.2 6.6 16.2 5 3.9-1 7.5-4.2 28.4-24.8 24.1-23.9 27.5-28.3 27.6-34.8 0-5.1-4-11.5-9-14.1-5.2-2.8-9.2-2.9-14.5-.4zM373.9 367.3c-4.9 2.6-8.9 8.9-8.9 14.2.1 6.4 3.6 10.8 27.6 34.7 20.9 20.7 24.5 23.8 28.4 24.8 12 3.2 23.2-8.2 19.9-20.3-.9-3.6-4.6-7.7-24.7-28.1-28.7-28.9-31.8-30.8-42.3-25.3zM251.5 415.7c-3.2.8-8.4 5.2-10.3 8.6-1.5 2.9-1.7 6.8-1.7 39.2 0 39.7-.1 39.3 6.5 44.8 7.7 6.6 19.6 3.8 24.8-5.7 1.5-2.8 1.7-7 1.7-39.1 0-40 0-39.7-6.8-44.9-3.4-2.6-10.2-4-14.2-2.9z"/></svg>