<svg version="1.0" xmlns="http://www.w3.org/2000/svg" width="682.667" height="682.667" viewBox="0 0 512 512"><path d="M232.5 1.6C148.4 11.8 80.4 77.8 66.4 162.5c-7.5 46.1 3.8 93.6 39.2 164.5 46 91.9 117.9 181.3 148.6 184.7 9.5 1.1 22.7-6.9 41-24.5 51.6-49.9 114.9-152.6 139.2-225.7 10.4-31.3 14.2-53.3 13.2-76-2.6-62.2-33.7-118.1-85-152.6-38.9-26.2-83.7-37-130.1-31.3zm53.7 33.3C343 46.3 390 87.9 407.9 142.8c5.6 17 7.5 29.7 7.5 49.2 0 15.2-.3 19.2-2.7 30-11.6 54.6-49.9 129.3-101.3 197.6-21.5 28.6-44.3 53.8-52.8 58.4-3.5 1.8-5.5.7-16.4-9.5-17-15.9-43.6-49.6-66.7-84.5-44.4-66.9-71.2-126.5-78.1-173-3-20.5-.4-46.4 6.7-68.3C123.2 84.1 175.9 40.8 237.2 33c11.1-1.4 37.7-.3 49 1.9z"/><path d="M245.5 115c-26.9 4.2-49.1 20-60.5 43.4-7.1 14.3-8.5 20.4-8.4 36.1 0 14.6 1.4 21.3 6.9 33.2 10.6 23.1 30.9 39.2 56.1 44.9 11.9 2.6 29.2 1.6 40.9-2.3 21.6-7.4 37.5-21.2 47-40.8 6.5-13.3 7.9-19.7 7.9-35 0-10.5-.4-14.5-2.2-20.8-8.1-28.5-31.1-50.9-58.7-57-9.3-2.1-21.6-2.8-29-1.7zm25.9 34.2c22.8 7.5 36.4 31.4 31.5 55-6.8 32.1-44.7 48.3-72.2 30.8-32-20.3-29.3-67.4 4.8-83.6 11.9-5.7 23.4-6.4 35.9-2.2z"/></svg>