<svg version="1.0" xmlns="http://www.w3.org/2000/svg" width="682.667" height="682.667" viewBox="0 0 512 512" class="moon-icon" ><path d="M255.5.7c-91.7 8.2-171 62.2-211 143.8-23.6 48.1-31.3 101.2-22.4 154.3 16.2 96.8 89.4 177.6 184.6 203.7 78.7 21.6 160.6 5.5 226.4-44.5 10.9-8.4 30.1-27.1 40-39.1 11-13.2 19.9-26.4 20.1-29.7.6-8.6-1.1-13.1-6.6-18-4.3-3.7-5.7-4-25.6-4.6-104.1-3.1-193.7-83.7-208.4-187.6-2.4-17.1-2.9-29.6-1.7-45.9 2.7-35.7 13-68.1 31.4-98.9 3-5.1 5.8-11.1 6.2-13.2 1.3-7.9-4-16.9-11.7-19.6-3.1-1.2-12.6-1.5-21.3-.7zM237 40.4c0 .2-2.1 5.5-4.6 11.8-12.6 31.4-18.4 61.6-18.4 96.2 0 125.2 90.2 230.8 215.4 252.1 4.9.8 9.1 1.7 9.4 1.9.7.8-17.1 17.8-25.7 24.6-25.5 20.2-52.6 33.6-83.5 41.5-32.2 8.2-69.9 8.7-103 1.4-14-3.1-34.8-10.4-48.5-17.2C100.4 414.5 51.8 334 55.4 249c1-24.7 4-41.3 11.7-63.7C90 118.1 147.4 64 215.5 45.2c17-4.7 21.5-5.7 21.5-4.8z"/></svg>